# xmcd
#
# Track frame offsets:
#	150
#	13945
#	25536
#	34833
#	43407
#	52561
#	64005
#	74618
#	85794
#	96169
#	109676
#	119641
#	130594
#	145359
#	154093
#	167215
#	180135
#	190087
#	198392
#	212162
#	224257
#	234785
#	247308
#	259984
#
# Disc length: 3639 seconds
#
# Revision: 0
# Processed by: cddbd v1.5.2PL0 Copyright (c) Steve Scherf et al.
# Submitted via: audiograbber 1.82.02
#
DISCID=570e3518
DTITLE=Blue Francis - Meets Gordon Parsons and Murrumbidgee Mud
DYEAR=1999
DGENRE=Country
TTITLE0=Bottle Folk Of Hate
TTITLE1=Hobnail Express
TTITLE2=Indian Pacific
TTITLE3=True Blue Gill
TTITLE4=Yuonne Goolangong
TTITLE5=There Is No Indispensable Man
TTITLE6=Jacky's Liberation
TTITLE7=Nitro Express
TTITLE8=The Punters Just A Mug
TTITLE9=Cobber Jack
TTITLE10=Precious Stone
TTITLE11=Running Short Of Time
TTITLE12=Murrumbidgee Mud
TTITLE13=Truckies Blues
TTITLE14=Little Rose
TTITLE15=Winter Sunshine City
TTITLE16=Retired Swaggie
TTITLE17=Bread and Jam Staggers
TTITLE18=Sounds Of The Bush
TTITLE19=Tyntinder
TTITLE20=Stage Coach To Mount Brewn
TTITLE21=Big Boy
TTITLE22=Tribute To Namatjira
TTITLE23=Truckies Wife
EXTD=
EXTT0=
EXTT1=
EXTT2=
EXTT3=
EXTT4=
EXTT5=
EXTT6=
EXTT7=
EXTT8=
EXTT9=
EXTT10=
EXTT11=
EXTT12=
EXTT13=
EXTT14=
EXTT15=
EXTT16=
EXTT17=
EXTT18=
EXTT19=
EXTT20=
EXTT21=
EXTT22=
EXTT23=
PLAYORDER=
